<svg width="24" height="24" viewBox="0 0 24 24" fill="none" xmlns="http://www.w3.org/2000/svg">
<path d="M2 20H22V22C22 23.1046 21.1046 24 20 24H4C2.89543 24 2 23.1046 2 22V20Z" fill="#9E7323"/>
<path d="M2 18H22V20C22 21.1046 21.1046 22 20 22H4C2.89543 22 2 21.1046 2 20V18Z" fill="#C28F2D"/>
<rect x="2" width="20" height="20" rx="2" fill="#E6AB37"/>
<path d="M6 13H18V14C18 14.5523 17.5523 15 17 15H7C6.44772 15 6 14.5523 6 14V13Z" fill="#A3A3A3"/>
<rect x="6" y="6" width="12" height="8" rx="0.5" fill="#C6C6C6"/>
<path d="M10 1C9.72386 1 9.5 1.22386 9.5 1.5C9.5 1.77614 9.72386 2 10 2V1ZM10 2H12V1H10V2Z" fill="#DBDBDB"/>
<path d="M14 17C14.2761 17 14.5 16.7761 14.5 16.5C14.5 16.2239 14.2761 16 14 16V17ZM12 17H14V16H12V17Z" fill="#DBDBDB"/>
<path d="M10 17C9.72386 17 9.5 17.2239 9.5 17.5C9.5 17.7761 9.72386 18 10 18V17ZM10 18H12V17H10V18Z" fill="#DBDBDB"/>
<path d="M14 19C14.2761 19 14.5 18.7761 14.5 18.5C14.5 18.2239 14.2761 18 14 18V19ZM12 19H14V18H12V19Z" fill="#DBDBDB"/>
<path d="M14 3C14.2761 3 14.5 2.77614 14.5 2.5C14.5 2.22386 14.2761 2 14 2V3ZM12 3H14V2H12V3Z" fill="#DBDBDB"/>
<path d="M10 3C9.72386 3 9.5 3.22386 9.5 3.5C9.5 3.77614 9.72386 4 10 4V3ZM10 4H12V3H10V4Z" fill="#DBDBDB"/>
<path d="M6 5.5C6 5.22386 6.22386 5 6.5 5H17.5C17.7761 5 18 5.22386 18 5.5V7H6V5.5Z" fill="#6D6D6D"/>
<rect x="9" y="8" width="6" height="5" rx="0.5" fill="#245CA4"/>
<circle cx="17.5" cy="5.5" r="0.5" fill="#D9534F"/>
<circle cx="16.5" cy="5.5" r="0.5" fill="#F0AD4E"/>
<circle cx="15.5" cy="5.5" r="0.5" fill="#5CB85C"/>
</svg>
